<mxfile host="Electron" modified="2023-04-22T07:08:32.930Z" agent="Mozilla/5.0 (Windows NT 10.0; Win64; x64) AppleWebKit/537.36 (KHTML, like Gecko) draw.io/21.1.2 Chrome/106.0.5249.199 Electron/21.4.3 Safari/537.36" etag="Um-aRymMpGU9n3p0coiI" version="21.1.2" type="device">
  <diagram name="第 1 页" id="lOxtWkSh6AA9Uj9DFQvV">
    <mxGraphModel dx="1206" dy="809" grid="1" gridSize="10" guides="1" tooltips="1" connect="1" arrows="1" fold="1" page="1" pageScale="1" pageWidth="827" pageHeight="1169" math="0" shadow="0">
      <root>
        <mxCell id="0" />
        <mxCell id="1" parent="0" />
        <mxCell id="0koJJHZNDk8aewq5fnYL-21" value="" style="edgeStyle=orthogonalEdgeStyle;rounded=0;orthogonalLoop=1;jettySize=auto;html=1;" edge="1" parent="1" source="0koJJHZNDk8aewq5fnYL-1" target="0koJJHZNDk8aewq5fnYL-4">
          <mxGeometry relative="1" as="geometry" />
        </mxCell>
        <mxCell id="0koJJHZNDk8aewq5fnYL-1" value="delete_node" style="rounded=1;whiteSpace=wrap;html=1;fillColor=#dae8fc;strokeColor=#6c8ebf;" vertex="1" parent="1">
          <mxGeometry x="354" y="200" width="120" height="60" as="geometry" />
        </mxCell>
        <mxCell id="0koJJHZNDk8aewq5fnYL-17" value="" style="edgeStyle=orthogonalEdgeStyle;rounded=0;orthogonalLoop=1;jettySize=auto;html=1;" edge="1" parent="1" source="0koJJHZNDk8aewq5fnYL-4" target="0koJJHZNDk8aewq5fnYL-11">
          <mxGeometry relative="1" as="geometry" />
        </mxCell>
        <mxCell id="0koJJHZNDk8aewq5fnYL-4" value="delete node" style="rounded=1;whiteSpace=wrap;html=1;" vertex="1" parent="1">
          <mxGeometry x="354" y="320" width="120" height="60" as="geometry" />
        </mxCell>
        <mxCell id="0koJJHZNDk8aewq5fnYL-7" value="" style="edgeStyle=orthogonalEdgeStyle;rounded=0;orthogonalLoop=1;jettySize=auto;html=1;" edge="1" parent="1" source="0koJJHZNDk8aewq5fnYL-6" target="0koJJHZNDk8aewq5fnYL-1">
          <mxGeometry relative="1" as="geometry" />
        </mxCell>
        <mxCell id="0koJJHZNDk8aewq5fnYL-6" value="val" style="shape=parallelogram;perimeter=parallelogramPerimeter;whiteSpace=wrap;html=1;fixedSize=1;fillColor=#d5e8d4;strokeColor=#82b366;" vertex="1" parent="1">
          <mxGeometry x="354" y="100" width="120" height="60" as="geometry" />
        </mxCell>
        <mxCell id="0koJJHZNDk8aewq5fnYL-25" value="" style="edgeStyle=orthogonalEdgeStyle;rounded=0;orthogonalLoop=1;jettySize=auto;html=1;" edge="1" parent="1" source="0koJJHZNDk8aewq5fnYL-11" target="0koJJHZNDk8aewq5fnYL-22">
          <mxGeometry relative="1" as="geometry" />
        </mxCell>
        <mxCell id="0koJJHZNDk8aewq5fnYL-11" value="delete data" style="rounded=1;whiteSpace=wrap;html=1;" vertex="1" parent="1">
          <mxGeometry x="354" y="410" width="120" height="60" as="geometry" />
        </mxCell>
        <mxCell id="0koJJHZNDk8aewq5fnYL-19" value="" style="edgeStyle=orthogonalEdgeStyle;rounded=0;orthogonalLoop=1;jettySize=auto;html=1;" edge="1" parent="1" source="0koJJHZNDk8aewq5fnYL-14" target="0koJJHZNDk8aewq5fnYL-15">
          <mxGeometry relative="1" as="geometry" />
        </mxCell>
        <mxCell id="0koJJHZNDk8aewq5fnYL-14" value="assignment root" style="rounded=1;whiteSpace=wrap;html=1;" vertex="1" parent="1">
          <mxGeometry x="354" y="660" width="120" height="60" as="geometry" />
        </mxCell>
        <mxCell id="0koJJHZNDk8aewq5fnYL-20" value="" style="edgeStyle=orthogonalEdgeStyle;rounded=0;orthogonalLoop=1;jettySize=auto;html=1;" edge="1" parent="1" source="0koJJHZNDk8aewq5fnYL-15" target="0koJJHZNDk8aewq5fnYL-16">
          <mxGeometry relative="1" as="geometry" />
        </mxCell>
        <mxCell id="0koJJHZNDk8aewq5fnYL-15" value="connect node" style="rounded=1;whiteSpace=wrap;html=1;" vertex="1" parent="1">
          <mxGeometry x="354" y="755" width="120" height="60" as="geometry" />
        </mxCell>
        <mxCell id="0koJJHZNDk8aewq5fnYL-16" value="redraw tree" style="rounded=1;whiteSpace=wrap;html=1;" vertex="1" parent="1">
          <mxGeometry x="354" y="850" width="120" height="60" as="geometry" />
        </mxCell>
        <mxCell id="0koJJHZNDk8aewq5fnYL-23" value="Y" style="edgeStyle=orthogonalEdgeStyle;rounded=0;orthogonalLoop=1;jettySize=auto;html=1;" edge="1" parent="1" source="0koJJHZNDk8aewq5fnYL-22" target="0koJJHZNDk8aewq5fnYL-14">
          <mxGeometry relative="1" as="geometry" />
        </mxCell>
        <mxCell id="0koJJHZNDk8aewq5fnYL-24" value="N" style="edgeStyle=orthogonalEdgeStyle;rounded=0;orthogonalLoop=1;jettySize=auto;html=1;entryX=1;entryY=0.5;entryDx=0;entryDy=0;" edge="1" parent="1" source="0koJJHZNDk8aewq5fnYL-22" target="0koJJHZNDk8aewq5fnYL-15">
          <mxGeometry relative="1" as="geometry">
            <Array as="points">
              <mxPoint x="540" y="560" />
              <mxPoint x="540" y="785" />
            </Array>
          </mxGeometry>
        </mxCell>
        <mxCell id="0koJJHZNDk8aewq5fnYL-22" value="is root node" style="rhombus;whiteSpace=wrap;html=1;" vertex="1" parent="1">
          <mxGeometry x="374" y="520" width="80" height="80" as="geometry" />
        </mxCell>
      </root>
    </mxGraphModel>
  </diagram>
</mxfile>
